# xmcd
#
# Track frame offsets: 
#        150
#        27589
#        66917
#        83509
#        114707
#        138905
#        156482
#        173195
#        191425
#        207478
#        223328
#        263074
#        279807
#        294126
#
# Disc length: 4142 seconds
#
# Revision: 0
# Processed by: cddbd v1.5.2PL0 Copyright (c) Steve Scherf et al.
# Submitted via: ExactAudioCopy v1.0b3
#
DISCID=d1102c0e
DTITLE=Various Artist - Trance Decade - CD 1
DYEAR=1900
DGENRE=
TTITLE0=Legend B - Lost In Love (Sysex Style Mix)
TTITLE1=Jordan and Baker - Explode (Marc Van Linden Rmx)
TTITLE2=Nikolai - Ready To Flow '97 (Radio Mix)
TTITLE3=Nexus 6 - Tres Chic (Original Mix)
TTITLE4=Nitro - Orgasmic Trancemission
TTITLE5=Midiman Vs. Foggy - God Stepped Out On Space (Radio Club Mix)
TTITLE6=Robotnico - Backfired 2000 (Video Mix)
TTITLE7=Los Pablos - Mind Solution (Short Cut)
TTITLE8=Anaconda - Another World (Short Cut)
TTITLE9=Cosmo and Tom - Love Teknik (XL-Cut)
TTITLE10=DJ Responce - Passion Of Harmony
TTITLE11=Pat Krimson - Taboo Bells (Voodoo Video Mix)
TTITLE12=Ruff Driverz - Waiting For The Sun (Original Radio Mix)
TTITLE13=DJ Isaac - Day One (Single Mix)
EXTD=
EXTT0=
EXTT1=
EXTT2=
EXTT3=
EXTT4=
EXTT5=
EXTT6=
EXTT7=
EXTT8=
EXTT9=
EXTT10=
EXTT11=
EXTT12=
EXTT13=
PLAYORDER=
